<svg width="48" height="39" viewBox="0 0 48 39" fill="none" xmlns="http://www.w3.org/2000/svg">
<path d="M41 0.4C31.6 7 27 14.9 27 24.1C27 28.3 28 31.6 30.1 34.2C32.2 36.8 34.8 38.1 38 38.1C40.8 38.1 43.2 37.2 45.1 35.3C47.1 33.4 48 31.1 48 28.4C48 25.9 47.2 23.7 45.5 21.8C43.8 19.9 41.8 18.8 39.3 18.5C39.1 14.8 41.3 10.4 46 5.5C46.9 4.4 46.9 3.3 46 2.2L44.7 0.7C44.2 0.3 43.5 0.1 42.5 0.1C41.8 0.1 41.3 0.2 41 0.4ZM14 0.4C4.7 7 0 14.9 0 24.1C0 28.3 1 31.6 3.1 34.2C5.2 36.8 7.8 38.1 11 38.1C13.8 38.1 16.2 37.2 18.1 35.3C20.1 33.4 21 31.1 21 28.4C21 25.9 20.2 23.7 18.5 21.8C16.8 19.9 14.8 18.8 12.3 18.5C12.1 14.8 14.3 10.4 19 5.5C20 4.4 19.9 3.3 18.8 2.2L17.5 0.7C17.1 0.3 16.4 0 15.5 0C14.9 0.1 14.4 0.2 14 0.4Z" fill="#BAC34E"/>
</svg>
