<svg width="40" height="40" viewBox="0 0 40 40" fill="none" xmlns="http://www.w3.org/2000/svg">
<path d="M7.49987 31.25C7.49987 31.25 13.7499 30 14.9999 26.25C14.9999 26.25 4.99987 22.5 7.49987 8.75001C7.49987 8.75001 12.4999 15 19.9999 16.25V13.7505C20 12.3145 20.4945 10.9223 21.4004 9.80801C22.3062 8.69373 23.568 7.92529 24.9737 7.63188C26.3794 7.33848 27.8433 7.53799 29.1192 8.1969C30.3951 8.8558 31.4052 9.9339 31.9798 11.2499L37.4999 11.25L32.4999 16.25C32.4999 25 26.2499 33.75 14.9999 33.75C9.99987 33.75 7.49987 31.25 7.49987 31.25Z" stroke="black" stroke-width="2" stroke-linecap="round" stroke-linejoin="round"/>
</svg>
