<svg width="120" height="32" viewBox="0 0 120 32" fill="none" xmlns="http://www.w3.org/2000/svg">
<g clip-path="url(#clip0)">
<g clip-path="url(#clip1)">
<path d="M28.0001 28.4248L28.0001 18.9317C28.0001 14.4302 24.3509 10.781 19.8494 10.781L19.8494 20.2741C19.8494 24.7756 23.4986 28.4248 28.0001 28.4248Z" fill="#6FCF97"/>
<path d="M8.15069 28L20.137 28C20.137 23.4985 16.4878 19.8493 11.9863 19.8493L-3.56278e-07 19.8493C-1.59511e-07 24.3508 3.64919 28 8.15069 28Z" fill="#8C30F5"/>
<path d="M-7.71237e-07 1.5754L-3.56278e-07 11.0686C-1.59511e-07 15.5701 3.64919 19.2192 8.15068 19.2192L8.15068 9.72609C8.15068 5.22459 4.5015 1.5754 -7.71237e-07 1.5754Z" fill="#2D9CDB"/>
<path d="M19.3698 1.57539L7.38354 1.57539C7.38354 6.07689 11.0327 9.72607 15.5342 9.72607L27.5205 9.72607C27.5205 5.22457 23.8713 1.57539 19.3698 1.57539Z" fill="#F2C94C"/>
</g>
<path d="M43.76 24H53.572V21.206H46.752V8.16H43.76V24ZM64.8107 24.33C66.3947 24.33 67.7587 23.9853 68.9027 23.296C70.054 22.6067 70.9377 21.6423 71.5537 20.403C72.177 19.1637 72.4887 17.7227 72.4887 16.08C72.4887 14.4373 72.177 12.9963 71.5537 11.757C70.9377 10.5177 70.054 9.55333 68.9027 8.864C67.7587 8.17467 66.3947 7.83 64.8107 7.83C63.2267 7.83 61.859 8.17467 60.7077 8.864C59.5637 9.55333 58.68 10.5177 58.0567 11.757C57.4407 12.9963 57.1327 14.4373 57.1327 16.08C57.1327 17.7227 57.4407 19.1637 58.0567 20.403C58.68 21.6423 59.5637 22.6067 60.7077 23.296C61.859 23.9853 63.2267 24.33 64.8107 24.33ZM64.8107 21.514C63.3073 21.492 62.178 20.9933 61.4227 20.018C60.6747 19.0427 60.3007 17.73 60.3007 16.08C60.3007 14.43 60.6747 13.1063 61.4227 12.109C62.178 11.1117 63.3073 10.624 64.8107 10.646C66.3213 10.668 67.4507 11.1667 68.1987 12.142C68.9467 13.1173 69.3207 14.43 69.3207 16.08C69.3207 17.73 68.9467 19.0537 68.1987 20.051C67.4507 21.0483 66.3213 21.536 64.8107 21.514ZM84.2845 24.33C85.8099 24.33 87.1335 24 88.2555 23.34C89.3775 22.6727 90.2465 21.7523 90.8625 20.579C91.4785 19.4057 91.7865 18.06 91.7865 16.542C91.7865 16.5053 91.7829 16.366 91.7755 16.124C91.7682 15.882 91.7572 15.7133 91.7425 15.618H86.0445V17.928H88.5525C88.3105 19.182 87.8265 20.0987 87.1005 20.678C86.3819 21.2573 85.5092 21.536 84.4825 21.514C82.9792 21.492 81.8499 20.9933 81.0945 20.018C80.3465 19.0427 79.9725 17.73 79.9725 16.08C79.9725 14.43 80.3465 13.1063 81.0945 12.109C81.8499 11.1117 82.9792 10.624 84.4825 10.646C85.4945 10.6533 86.3232 10.9357 86.9685 11.493C87.6212 12.043 88.0905 12.78 88.3765 13.704L91.4345 13.264C91.0385 11.5333 90.2575 10.195 89.0915 9.249C87.9255 8.303 86.3232 7.83 84.2845 7.83C82.9059 7.83 81.6482 8.15267 80.5115 8.798C79.3822 9.44333 78.4802 10.382 77.8055 11.614C77.1382 12.8387 76.8045 14.3273 76.8045 16.08C76.8045 17.422 77.0025 18.6063 77.3985 19.633C77.8019 20.6597 78.3482 21.5213 79.0375 22.218C79.7342 22.9147 80.5335 23.4427 81.4355 23.802C82.3375 24.154 83.2872 24.33 84.2845 24.33ZM103.789 24.33C105.373 24.33 106.737 23.9853 107.881 23.296C109.033 22.6067 109.916 21.6423 110.532 20.403C111.156 19.1637 111.467 17.7227 111.467 16.08C111.467 14.4373 111.156 12.9963 110.532 11.757C109.916 10.5177 109.033 9.55333 107.881 8.864C106.737 8.17467 105.373 7.83 103.789 7.83C102.205 7.83 100.838 8.17467 99.6862 8.864C98.5422 9.55333 97.6585 10.5177 97.0352 11.757C96.4192 12.9963 96.1112 14.4373 96.1112 16.08C96.1112 17.7227 96.4192 19.1637 97.0352 20.403C97.6585 21.6423 98.5422 22.6067 99.6862 23.296C100.838 23.9853 102.205 24.33 103.789 24.33ZM103.789 21.514C102.286 21.492 101.157 20.9933 100.401 20.018C99.6532 19.0427 99.2792 17.73 99.2792 16.08C99.2792 14.43 99.6532 13.1063 100.401 12.109C101.157 11.1117 102.286 10.624 103.789 10.646C105.3 10.668 106.429 11.1667 107.177 12.142C107.925 13.1173 108.299 14.43 108.299 16.08C108.299 17.73 107.925 19.0537 107.177 20.051C106.429 21.0483 105.3 21.536 103.789 21.514Z" fill="white"/>
</g>
<defs>
<clipPath id="clip0">
<rect width="120" height="32" fill="white"/>
</clipPath>
<clipPath id="clip1">
<rect width="28" height="28" fill="white" transform="translate(0 29) rotate(-90)"/>
</clipPath>
</defs>
</svg>
