<svg width="18" height="18" viewBox="0 0 18 18" fill="none" xmlns="http://www.w3.org/2000/svg">
<path d="M9 11.8125C10.5533 11.8125 11.8125 10.5533 11.8125 9C11.8125 7.4467 10.5533 6.1875 9 6.1875C7.4467 6.1875 6.1875 7.4467 6.1875 9C6.1875 10.5533 7.4467 11.8125 9 11.8125Z" stroke="#081B6A" stroke-miterlimit="10"/>
<path d="M12.0938 2.53125H5.90625C4.04229 2.53125 2.53125 4.04229 2.53125 5.90625V12.0938C2.53125 13.9577 4.04229 15.4688 5.90625 15.4688H12.0938C13.9577 15.4688 15.4688 13.9577 15.4688 12.0938V5.90625C15.4688 4.04229 13.9577 2.53125 12.0938 2.53125Z" stroke="#081B6A" stroke-linecap="round" stroke-linejoin="round"/>
<path d="M12.6562 6.1875C13.1222 6.1875 13.5 5.80974 13.5 5.34375C13.5 4.87776 13.1222 4.5 12.6562 4.5C12.1903 4.5 11.8125 4.87776 11.8125 5.34375C11.8125 5.80974 12.1903 6.1875 12.6562 6.1875Z" fill="#081B6A"/>
</svg>
