<svg width="18" height="18" viewBox="0 0 18 18" fill="none" xmlns="http://www.w3.org/2000/svg">
<path d="M14.625 2.8125H3.375C3.06434 2.8125 2.8125 3.06434 2.8125 3.375V14.625C2.8125 14.9357 3.06434 15.1875 3.375 15.1875H14.625C14.9357 15.1875 15.1875 14.9357 15.1875 14.625V3.375C15.1875 3.06434 14.9357 2.8125 14.625 2.8125Z" stroke="#081B6A" stroke-linecap="round" stroke-linejoin="round"/>
<path d="M8.4375 7.87506V12.3751" stroke="#081B6A" stroke-linecap="round" stroke-linejoin="round"/>
<path d="M6.1875 7.87506V12.3751" stroke="#081B6A" stroke-linecap="round" stroke-linejoin="round"/>
<path d="M8.4375 9.84381C8.4375 9.32167 8.64492 8.82091 9.01413 8.45169C9.38335 8.08248 9.88411 7.87506 10.4062 7.87506C10.9284 7.87506 11.4292 8.08248 11.7984 8.45169C12.1676 8.82091 12.375 9.32167 12.375 9.84381V12.3751" stroke="#081B6A" stroke-linecap="round" stroke-linejoin="round"/>
<path d="M6.1875 6.46875C6.65349 6.46875 7.03125 6.09099 7.03125 5.625C7.03125 5.15901 6.65349 4.78125 6.1875 4.78125C5.72151 4.78125 5.34375 5.15901 5.34375 5.625C5.34375 6.09099 5.72151 6.46875 6.1875 6.46875Z" fill="#081B6A"/>
</svg>
