<svg width="18" height="18" viewBox="0 0 18 18" fill="none" xmlns="http://www.w3.org/2000/svg">
<path d="M8.4375 6.1875L6.1875 15.75" stroke="#081B6A" stroke-linecap="round" stroke-linejoin="round"/>
<path d="M4.32735 11.0077C3.83802 10.2778 3.5265 9.44337 3.41775 8.57138C3.30901 7.69939 3.40606 6.81405 3.70114 5.98632C3.99622 5.1586 4.48111 4.41152 5.11694 3.80497C5.75278 3.19842 6.52187 2.74927 7.36258 2.49351C8.20328 2.23776 9.09221 2.18253 9.95811 2.33224C10.824 2.48195 11.6428 2.83244 12.3488 3.35561C13.0549 3.87878 13.6285 4.56009 14.0238 5.34491C14.4191 6.12974 14.625 6.99625 14.625 7.875C14.625 10.9816 12.375 12.9375 10.125 12.9375C7.875 12.9375 7.19778 11.4563 7.19778 11.4563" stroke="#081B6A" stroke-linecap="round" stroke-linejoin="round"/>
</svg>
