<svg width="18" height="18" viewBox="0 0 18 18" fill="none" xmlns="http://www.w3.org/2000/svg">
<path d="M3.37501 14.0625C3.37501 14.0625 6.18751 13.5 6.75001 11.8125C6.75001 11.8125 2.25001 10.125 3.37501 3.9375C3.37501 3.9375 5.62501 6.75 9.00001 7.3125V6.1877C9.00008 5.5415 9.22262 4.91503 9.63023 4.4136C10.0378 3.91218 10.6057 3.56638 11.2382 3.43435C11.8708 3.30231 12.5295 3.3921 13.1037 3.6886C13.6779 3.98511 14.1324 4.47025 14.391 5.06248L16.875 5.0625L14.625 7.3125C14.625 11.25 11.8125 15.1875 6.75001 15.1875C4.50001 15.1875 3.37501 14.0625 3.37501 14.0625Z" stroke="#081B6A" stroke-linecap="round" stroke-linejoin="round"/>
</svg>
