<svg width="32" height="32" viewBox="0 0 32 32" fill="none" xmlns="http://www.w3.org/2000/svg">
<path d="M6.00019 25C6.00019 25 11.0002 24 12.0002 21C12.0002 21 4.00019 18 6.00019 7C6.00019 7 10.0002 12 16.0002 13V11.0004C16.0003 9.85156 16.3959 8.73783 17.1206 7.84641C17.8452 6.95498 18.8547 6.34023 19.9792 6.10551C21.1038 5.87078 22.2749 6.0304 23.2956 6.55752C24.3164 7.08464 25.1245 7.94712 25.5841 8.99996L30.0002 9L26.0002 13C26.0002 20 21.0002 27 12.0002 27C8.00019 27 6.00019 25 6.00019 25Z" stroke="#0A472E" stroke-width="2" stroke-linecap="round" stroke-linejoin="round"/>
</svg>
