<svg width="18" height="18" viewBox="0 0 18 18" fill="none" xmlns="http://www.w3.org/2000/svg">
<path d="M3.19423 12.4452C2.35558 11.0314 2.06188 9.36015 2.36828 7.74518C2.67467 6.13021 3.56008 4.68264 4.85824 3.67429C6.15641 2.66593 7.77803 2.16616 9.4186 2.26883C11.0592 2.37149 12.6058 3.06952 13.7682 4.23184C14.9305 5.39417 15.6285 6.94083 15.7312 8.5814C15.8339 10.222 15.3341 11.8436 14.3258 13.1418C13.3174 14.4399 11.8699 15.3253 10.2549 15.6317C8.63991 15.9381 6.96864 15.6445 5.55488 14.8058L5.5549 14.8058L3.22358 15.4718C3.12712 15.4994 3.02505 15.5007 2.92795 15.4755C2.83084 15.4503 2.74223 15.3997 2.67129 15.3287C2.60036 15.2578 2.54969 15.1692 2.52453 15.0721C2.49936 14.975 2.50063 14.8729 2.52819 14.7765L3.19428 12.4451L3.19423 12.4452Z" stroke="#081B6A" stroke-linecap="round" stroke-linejoin="round"/>
<path d="M10.6955 12.9375C9.95546 12.9385 9.2225 12.7936 8.5386 12.5109C7.8547 12.2281 7.2333 11.8133 6.71002 11.29C6.18674 10.7667 5.77186 10.1453 5.48915 9.4614C5.20644 8.7775 5.06145 8.04454 5.0625 7.30451C5.06418 6.78361 5.27239 6.28465 5.64147 5.91707C6.01055 5.54949 6.51035 5.34331 7.03125 5.34375V5.34375C7.11669 5.34375 7.20061 5.36634 7.2745 5.40922C7.3484 5.4521 7.40965 5.51376 7.45204 5.58794L8.27406 7.02649C8.32364 7.11324 8.34921 7.21164 8.34814 7.31155C8.34708 7.41146 8.31942 7.50929 8.26802 7.59497L7.60785 8.69525C7.94749 9.44898 8.55102 10.0525 9.30475 10.3922V10.3922L10.405 9.73199C10.4907 9.68058 10.5885 9.65292 10.6884 9.65186C10.7884 9.6508 10.8868 9.67637 10.9735 9.72594L12.4121 10.548C12.4862 10.5904 12.5479 10.6516 12.5908 10.7255C12.6337 10.7994 12.6563 10.8833 12.6563 10.9688V10.9688C12.6548 11.4891 12.448 11.9877 12.0808 12.3564C11.7136 12.7251 11.2158 12.9339 10.6955 12.9375V12.9375Z" stroke="#081B6A" stroke-linecap="round" stroke-linejoin="round"/>
</svg>
