<svg width="18" height="18" viewBox="0 0 18 18" fill="none" xmlns="http://www.w3.org/2000/svg">
<path d="M11.25 9L7.875 6.75V11.25L11.25 9Z" stroke="#081B6A" stroke-linecap="round" stroke-linejoin="round"/>
<path d="M1.6875 9.00001C1.6875 11.0922 1.90365 12.3197 2.06797 12.9506C2.11189 13.1229 2.19624 13.2823 2.31402 13.4155C2.43181 13.5487 2.57964 13.652 2.74527 13.7166C5.09912 14.6212 9 14.5964 9 14.5964C9 14.5964 12.9008 14.6212 15.2547 13.7167C15.4203 13.652 15.5682 13.5487 15.686 13.4155C15.8037 13.2823 15.8881 13.123 15.932 12.9506C16.0963 12.3197 16.3125 11.0922 16.3125 9.00001C16.3125 6.90782 16.0963 5.68029 15.932 5.04939C15.8881 4.87708 15.8038 4.71772 15.686 4.58451C15.5682 4.4513 15.4204 4.34807 15.2547 4.28338C12.9009 3.37882 9 3.40366 9 3.40366C9 3.40366 5.09916 3.37882 2.7453 4.28337C2.57966 4.34806 2.43183 4.45129 2.31404 4.5845C2.19626 4.71771 2.11191 4.87707 2.06798 5.04937C1.90366 5.68028 1.6875 6.90782 1.6875 9.00001Z" stroke="#081B6A" stroke-linecap="round" stroke-linejoin="round"/>
</svg>
