<svg width="44" height="41" viewBox="0 0 44 41" fill="none" xmlns="http://www.w3.org/2000/svg">
<path d="M30.9363 4.97305C35.8617 7.17522 41.7854 8.3929 42.817 11.0614C43.882 13.7558 39.9883 17.927 39.123 22.3832C38.2245 26.8394 40.3211 31.6064 38.8568 35.3372C37.4258 39.0938 32.4339 41.8142 27.7748 40.7779C23.1157 39.7674 18.7561 35.0004 14.4631 32.7982C10.1701 30.596 5.91033 30.9328 3.21471 29.6115C0.552372 28.2902 -0.579122 25.3108 0.286138 22.7459C1.11812 20.181 3.91358 18.0825 5.71065 15.8544C7.47445 13.6263 8.27316 11.2946 10.2034 8.00428C12.1335 4.73987 15.1952 0.542783 18.6563 0.0505314C22.1506 -0.44172 26.011 2.77087 30.9363 4.97305Z" fill="url(#paint0_linear)"/>
<path d="M43.3983 4.54531C42.82 2.77336 42.0361 1.50462 42.0029 1.4513C41.8744 1.24492 41.6098 1.13757 41.3701 1.19113C41.308 1.20493 39.8278 1.54152 38.1204 2.37227C35.8153 3.49342 34.2052 4.9902 33.4633 6.70002C32.8459 8.12396 32.7572 9.86473 33.1953 11.7878C32.2622 10.7726 31.2125 9.88448 30.0683 9.13681C29.7189 8.46435 28.7951 6.8088 27.3508 5.07851C26.8751 4.50889 25.96 5.22372 26.4406 5.79905C27.4138 6.9652 28.1464 8.11206 28.6045 8.89996L23.2626 7.88545L18.1872 1.14114C18.68 1.14781 19.1746 1.19422 19.6667 1.28825C21.2268 1.58579 22.7678 2.35989 24.2477 3.58864C24.8275 4.07019 25.5806 3.19373 25.0083 2.71885C23.3735 1.36156 21.6521 0.502725 19.892 0.166854C17.205 -0.345402 14.0711 0.327053 10.8283 2.11233C8.41134 3.44296 6.79506 4.90451 6.72762 4.96592C6.51139 5.16278 6.47694 5.52031 6.65799 5.75025C6.89499 6.22395 7.79317 7.93282 9.28826 9.77261C10.1696 10.8573 11.099 11.7857 12.0605 12.5486C11.7873 12.7716 11.5215 13.0049 11.2642 13.2503C9.89006 14.5598 8.83795 16.1044 8.14722 17.793C7.53662 19.285 7.20823 20.8901 7.18991 22.5445C7.15961 25.2498 7.96421 27.8589 9.51721 30.0903C11.0343 32.2697 13.1551 33.9431 15.6503 34.9293C16.3486 35.2047 16.7901 34.1467 16.0913 33.8705C15.1873 33.5132 14.338 33.0555 13.5546 32.5111C13.6548 31.9698 13.8872 30.0217 12.5589 28.0051C12.373 27.723 12.9289 26.6152 13.2607 25.9534C13.6032 25.2714 13.9568 24.5664 14.122 23.9025C14.2974 23.1972 14.1 22.6052 13.5514 22.1898C13.1488 21.8849 12.6217 21.7271 12.1573 21.5878C11.8555 21.4974 11.5134 21.395 11.3913 21.2957C11.1396 21.0903 10.7286 20.3312 10.3983 19.7216C10.0318 19.0453 9.68287 18.4017 9.32662 18.0054C10.1283 16.1506 11.4159 14.5093 13.0286 13.2537C14.5017 14.2313 16.1829 14.9059 17.97 15.0425C15.8976 16.6069 15.2271 18.6047 16.1854 20.5238C17.3044 22.7647 19.6078 22.4067 21.6399 22.0913C21.9915 22.0365 22.3553 21.9801 22.7038 21.9377C22.8345 21.9218 22.8738 21.9565 22.9002 21.9792C23.3452 22.3648 23.332 24.2065 23.3224 25.5514C23.3095 27.4116 23.2973 29.1688 24.0085 30.071C24.3714 30.5309 24.8823 30.7661 25.4811 30.7661C25.8401 30.7661 26.23 30.6818 26.639 30.5109C28.4078 29.773 30.2464 27.5521 29.9659 25.7949C29.7209 24.2586 29.5586 23.2436 29.941 22.4255C30.2946 21.6683 31.1492 20.9673 32.8325 20.0727C33.034 20.957 33.1357 21.877 33.1252 22.8209C33.0893 26.0424 31.7674 29.0577 29.4035 31.3107C26.7615 33.8286 23.0483 35.0721 19.3752 34.6777C18.6268 34.5987 18.4975 35.7332 19.2469 35.8136C23.2675 36.245 27.3325 34.8834 30.2235 32.1276C32.8117 29.6608 34.2587 26.3602 34.298 22.833C34.3503 18.1563 31.8871 14.013 28.1376 11.6262C28.9123 11.088 29.4895 10.6226 29.8095 10.3525C31.1766 11.3079 32.3892 12.485 33.3981 13.8564C35.82 17.1491 36.7805 21.1632 36.1032 25.1598C34.7043 33.4099 26.6772 39.014 18.2073 37.6508C14.1046 36.9907 10.5117 34.8141 8.0898 31.5213C5.66769 28.2288 4.70721 24.2143 5.38475 20.2179C5.50643 19.4988 4.34999 19.31 4.22782 20.0318C3.49897 24.3295 4.53227 28.6463 7.13615 32.1871C9.74053 35.7275 13.6047 38.0683 18.0162 38.7784C18.9388 38.9267 19.8624 39 20.7796 39C24.2468 39 27.6196 37.9512 30.4937 35.9448C34.1287 33.4076 36.5317 29.6437 37.2601 25.346C37.794 22.1967 37.3808 19.0373 36.0975 16.1803C36.6898 16.0101 37.6977 15.6797 38.8016 15.1427C41.1062 14.0216 42.7166 12.5248 43.4582 10.815C44.2004 9.10467 44.1797 6.93663 43.3983 4.54531ZM9.36083 20.2548C9.79722 21.0608 10.2099 21.8225 10.6387 22.172C10.9424 22.4193 11.3651 22.5459 11.8125 22.6799C12.9587 23.0232 13.0918 23.1917 12.9819 23.6333C12.847 24.1762 12.5216 24.8246 12.2071 25.4514C11.6014 26.6587 11.0294 27.7984 11.5716 28.6221C12.3405 29.7894 12.4722 30.9386 12.459 31.6535C8.96599 28.5849 7.54371 23.7382 8.84479 19.3331C9.0173 19.6212 9.19859 19.9558 9.36083 20.2548ZM37.7343 9.02731L36.0677 5.09256C36.8787 4.35369 37.8196 3.79764 38.621 3.40606C39.3037 3.07234 39.9532 2.82287 40.4741 2.64601L37.7343 9.02731ZM41.5553 3.089C41.7881 3.5765 42.0581 4.20515 42.2888 4.9157C42.5416 5.69551 42.7738 6.66194 42.82 7.67002L38.9142 9.23988L41.5553 3.089ZM34.5436 7.14491C34.7165 6.74644 34.9401 6.37701 35.1984 6.0359L37.0956 10.5146L35.3931 14.4807C35.1539 13.9863 34.8722 13.337 34.6332 12.5993C34.1536 11.1223 33.749 8.97661 34.5436 7.14491ZM38.3007 14.1089C37.6437 14.4303 37.0167 14.6736 36.5061 14.849L38.2729 10.734L42.7701 8.92615C42.7049 9.41698 42.5805 9.90353 42.3779 10.3701C41.5836 12.2018 39.7223 13.4146 38.3007 14.1089ZM17.1542 13.7838C16.947 13.7443 16.7425 13.6959 16.5409 13.6409L23.0314 9.00589L28.3758 10.0206C26.4289 11.515 21.691 14.6497 17.1542 13.7838ZM11.2224 10.2092C9.83435 8.75166 8.81694 7.19323 8.23273 6.19538L15.0338 7.48721L11.2224 10.2092ZM12.4236 2.5865L15.2691 6.36772L8.42405 5.0678C9.28582 4.40487 10.7083 3.40963 12.4236 2.5865ZM16.9658 6.69002L13.516 2.10567C14.5488 1.6922 15.6574 1.3668 16.7938 1.22207L21.5661 7.56338L16.9658 6.69002ZM16.6007 7.78476L21.4647 8.70834L15.2222 13.1661C14.045 12.6364 12.9856 11.875 12.0585 11.0285L16.6007 7.78476ZM32.5139 18.9416C30.3996 20.0389 29.3644 20.9008 28.8733 21.9523C28.3457 23.0813 28.539 24.2931 28.8065 25.9703C28.9646 26.9594 27.7581 28.8011 26.1772 29.4607C25.5923 29.7046 25.1757 29.6758 24.9385 29.3747C24.4725 28.7839 24.4852 26.9958 24.4952 25.5592C24.5092 23.5716 24.5214 21.8551 23.6796 21.1256C23.3769 20.8632 22.9896 20.7523 22.5594 20.8037C22.1907 20.8485 21.8166 20.9066 21.4552 20.9627C19.2994 21.2974 17.9429 21.4314 17.2402 20.0239C16.1016 17.7442 18.4064 16.0556 19.4502 15.4355C19.6628 15.3094 19.8599 15.1606 20.0432 14.9949C22.566 14.7012 24.9497 13.6467 27.074 12.3258C29.6209 13.8083 31.5761 16.1544 32.5139 18.9416Z" fill="#081B6A"/>
<defs>
<linearGradient id="paint0_linear" x1="33.7159" y1="-4.312e-07" x2="8.45664" y2="40.4837" gradientUnits="userSpaceOnUse">
<stop stop-color="#FF0066"/>
<stop stop-color="#FCB63D"/>
<stop offset="1" stop-color="#E07233"/>
</linearGradient>
</defs>
</svg>
