<svg width="46" height="48" viewBox="0 0 46 48" fill="none" xmlns="http://www.w3.org/2000/svg">
<path d="M38.5094 28.9568C37.0528 31.6146 35.8092 34.0317 34.1067 36.9074C32.4267 39.7501 30.2877 43.0513 27.5062 43.935C24.6919 44.7958 21.2729 43.2897 17.1091 42.5538C12.9453 41.8178 8.09184 41.8419 6.30762 39.4316C4.54595 36.9884 5.87092 32.0499 5.90017 27.8384C5.92942 23.6269 4.65785 20.1145 4.89251 16.5568C5.12716 12.9991 6.89058 9.3633 9.67094 7.06822C12.479 4.76808 16.3265 3.77575 19.8455 4.11115C23.3645 4.44656 26.5878 6.1325 29.2406 7.98048C31.8607 9.80564 33.9432 11.8156 36.1894 13.9397C38.4079 16.0689 40.8179 18.307 41.1992 20.8588C41.5857 23.4386 39.9384 26.3041 38.5094 28.9568Z" fill="url(#paint0_linear)"/>
<path d="M23.8532 41.9862C22.3205 41.9862 20.7886 41.6772 19.3699 41.0602L12.5861 38.1112C10.1319 37.0437 7.53695 36.3676 4.87351 36.1013L2.64576 35.8785C2.27898 35.842 2 35.5335 2 35.1651V28.177C2 28.0219 2.05046 27.871 2.14359 27.7471C2.31016 27.5243 6.30287 22.3082 12.4019 23.6653C15.8321 24.4276 18.594 25.8541 20.3069 26.9167C21.5504 27.688 23.0081 28.0954 24.5224 28.0954H31.3061C32.4754 28.0954 33.5031 28.7141 34.0779 29.6421L39.9205 22.9108C41.0533 21.3982 42.9064 20.4718 44.8466 20.4718H45.2831C45.5256 20.4718 45.7512 20.5941 45.8833 20.7967C46.0158 20.9994 46.0368 21.2558 45.9395 21.4774L40.6553 33.4867C39.5 36.1132 37.1475 38.0973 34.363 38.7935L33.4334 39.0257L28.0252 41.189C26.6943 41.7211 25.2736 41.9862 23.8532 41.9862ZM3.43429 34.516L5.01628 34.6744C7.82783 34.9554 10.5672 35.6697 13.1584 36.7963L19.9418 39.7453C22.3271 40.7825 25.0779 40.8231 27.4931 39.8569L32.9456 37.6759C32.9759 37.664 33.0067 37.6542 33.0383 37.6464L34.0151 37.4019C36.3729 36.8123 38.3648 35.1327 39.3424 32.909L44.1623 21.9553C42.9282 22.1371 41.7926 22.8021 41.036 23.8106L34.5637 31.27C34.5645 31.2979 34.5649 31.3254 34.5649 31.3537C34.5649 33.1503 33.1031 34.612 31.3066 34.612H21.8417C20.6113 34.612 19.3953 34.8094 18.2281 35.1983L17.9647 34.5296L17.7419 33.8481L17.7784 33.8362C19.0884 33.3997 20.4567 33.1778 21.8417 33.1778H31.3066C32.3121 33.1778 33.131 32.3593 33.131 31.3533C33.131 30.3473 32.3125 29.5288 31.3066 29.5288H24.5228C22.741 29.5288 21.022 29.0468 19.5516 28.1348C17.9335 27.1308 15.325 25.7839 12.0917 25.0647C7.47295 24.0403 4.14939 27.585 3.4347 28.4306V34.516H3.43429Z" fill="#081B6A"/>
<path d="M30.2387 20.3094C29.1359 20.3094 27.8993 19.9689 26.5381 19.2883C26.3731 19.2054 26.246 19.0618 26.1836 18.8883C26.1282 18.7328 24.8469 15.0474 26.8831 12.322C28.3629 10.3408 31.1454 9.44846 35.1578 9.67206C35.5237 9.69216 35.8154 9.9855 35.8335 10.3523C35.8478 10.637 36.1436 17.3576 32.7167 19.5952C31.988 20.0715 31.1601 20.3094 30.2387 20.3094ZM27.4525 18.1375C29.3361 19.0208 30.8418 19.1074 31.9331 18.3947C33.9651 17.0675 34.4045 13.1277 34.4152 11.0772C31.2713 11.0005 29.1309 11.709 28.0318 13.1798C26.7239 14.9313 27.2322 17.3403 27.4525 18.1375Z" fill="#081B6A"/>
<path d="M19.273 10.9149C18.0016 10.9149 16.5349 10.6425 15.2548 9.70505C13.0837 8.11404 12.0859 5.08504 12.2886 0.702578C12.3058 0.33621 12.5963 0.0416392 12.9627 0.0198951C13.2728 0.00225365 20.6142 -0.389551 23.0844 3.31844C24.2348 5.04443 24.1404 7.30499 22.805 10.0386C22.7237 10.2048 22.5818 10.3332 22.4082 10.3968C22.3118 10.4325 20.9658 10.9149 19.273 10.9149ZM22.1609 9.72392H22.1678H22.1609ZM13.6999 1.4308C13.638 4.94104 14.445 7.33371 16.102 8.5481C18.0861 10.0017 20.7951 9.38381 21.6468 9.1356C22.6212 7.02109 22.7036 5.33284 21.8913 4.11353C20.3815 1.84722 15.9539 1.40413 13.6999 1.4308Z" fill="#081B6A"/>
<path d="M24.8727 29.2769C24.8502 29.2769 24.8276 29.2757 24.8046 29.2736C24.4227 29.2375 24.1367 28.9073 24.156 28.5237C24.1983 27.6801 24.2705 26.8801 24.3685 26.122C24.6668 21.0478 24.5129 9.23129 17.042 5.96228C16.6793 5.80351 16.5136 5.38094 16.6723 5.01785C16.8307 4.65559 17.2545 4.49025 17.6168 4.64861C22.0193 6.57481 24.789 11.3704 25.6248 18.5168C25.6998 19.1573 25.756 19.7887 25.7979 20.4037C27.7655 15.4316 30.7757 13.6749 30.9549 13.5744C31.2996 13.3795 31.7369 13.5034 31.9314 13.8476C32.1246 14.1922 32.0032 14.6283 31.6598 14.8228C31.5839 14.8671 26.968 17.6372 25.8094 26.1798C25.7212 27.6412 25.594 28.5729 25.5821 28.6582C25.5325 29.016 25.2268 29.2769 24.8727 29.2769Z" fill="#081B6A"/>
<defs>
<linearGradient id="paint0_linear" x1="41.1483" y1="20.5661" x2="3.70305" y2="27.42" gradientUnits="userSpaceOnUse">
<stop stop-color="#E07233"/>
<stop offset="1" stop-color="#FCB63D"/>
</linearGradient>
</defs>
</svg>
