<svg width="43" height="40" viewBox="0 0 43 40" fill="none" xmlns="http://www.w3.org/2000/svg">
<path d="M30.9363 4.85175C35.8617 7.00022 41.7854 8.18819 42.817 10.7916C43.8819 13.4203 39.9883 17.4898 39.123 21.8373C38.2245 26.1848 40.3211 30.8355 38.8568 34.4753C37.4258 38.1403 32.4339 40.7943 27.7748 39.7833C23.1157 38.7975 18.7561 34.1467 14.4631 31.9982C10.1701 29.8498 5.91033 30.1784 3.21471 28.8893C0.552372 27.6002 -0.579122 24.6935 0.286138 22.1911C1.11812 19.6888 3.91358 17.6414 5.71065 15.4677C7.47445 13.294 8.27316 11.0191 10.2034 7.80905C12.1335 4.62427 15.1952 0.529544 18.6563 0.0492989C22.1506 -0.430946 26.011 2.70329 30.9363 4.85175Z" fill="url(#paint0_linear)"/>
<path d="M30.5684 19.4407C30.5063 19.2286 30.3469 19.0554 30.135 18.978C30.0923 18.9623 29.7457 18.8397 29.2074 18.761C31.5072 16.3139 30.7479 13.4549 30.5684 12.8966C30.5063 12.6844 30.3469 12.5112 30.135 12.4338C30.0363 12.3976 28.315 11.7907 26.3539 12.4732C26.4646 12.0189 26.5294 11.5195 26.5294 10.9715C26.5294 7.4652 23.8741 5.9241 23.3413 5.65051C23.1475 5.54434 22.9121 5.53464 22.7077 5.6297C22.5758 5.69094 19.4783 7.17334 19.4783 10.9715C19.4783 11.5206 19.5433 12.0211 19.6545 12.4761C17.6899 11.789 15.9639 12.3976 15.8651 12.4338C15.6532 12.5112 15.4938 12.6844 15.4317 12.8966C15.2522 13.4549 14.4929 16.3139 16.7927 18.761C16.2544 18.8397 15.9078 18.9623 15.8651 18.978C15.6532 19.0554 15.4937 19.2287 15.4317 19.4408C15.2484 20.0108 14.4605 22.9782 16.9399 25.4576C18.3747 26.8924 19.9671 27.2347 21.1602 27.2347C21.6019 27.2347 21.9879 27.1876 22.2919 27.1318V31.7326C22.2919 32.1208 22.6067 32.4357 22.995 32.4357C23.3834 32.4357 23.6981 32.1208 23.6981 31.7326V27.1301C24.0035 27.1866 24.3934 27.2346 24.8399 27.2346C26.0329 27.2346 27.6255 26.8922 29.0602 25.4575C31.5395 22.9781 30.7516 20.0107 30.5684 19.4407ZM22.2919 24.94C22.2763 25.2591 22.2315 25.5273 22.1887 25.7202C21.4371 25.8872 19.5567 26.0856 17.9343 24.4632C16.3363 22.8653 16.5038 21.016 16.6807 20.2091C17.1533 20.1064 18.0754 19.9919 19.0963 20.3232C19.1636 20.3484 19.2306 20.3722 19.2972 20.3943C19.8379 20.5994 20.3993 20.934 20.9314 21.466C21.9452 22.4799 22.248 23.5943 22.2919 24.4708V24.94ZM22.2919 18.3959C22.2763 18.7151 22.2315 18.9833 22.1887 19.1761C21.723 19.2797 20.824 19.3946 19.8215 19.0817C19.7199 19.0426 19.6189 19.0069 19.5186 18.9747C18.9942 18.7675 18.4512 18.4359 17.9342 17.9191C16.3363 16.3211 16.5038 14.4719 16.6807 13.6651C17.4316 13.5018 19.3173 13.3079 20.9314 14.922C20.9416 14.9322 20.9509 14.9426 20.961 14.9528C21.0226 15.022 21.0845 15.0881 21.1463 15.1517C21.9879 16.1017 22.2513 17.116 22.2919 17.9268V18.3959ZM23.0049 14.8681C22.7846 14.7267 22.4671 14.4938 22.1445 14.1571C22.1116 14.121 22.0784 14.0849 22.0442 14.049C21.4567 13.3964 20.8845 12.3954 20.8845 10.9715C20.8845 8.6795 22.3512 7.49031 23.0002 7.07631C23.6953 7.5211 25.123 8.7103 25.123 10.9715C25.123 12.3151 24.6188 13.2793 24.0709 13.9309C23.957 14.045 23.8504 14.1601 23.75 14.2759C23.4689 14.5492 23.1996 14.744 23.0049 14.8681ZM23.7025 18.168C23.7015 17.3426 23.9151 16.2502 24.7893 15.2243C24.8929 15.1214 24.997 15.0106 25.1003 14.8916C26.7137 13.3046 28.5722 13.4984 29.3191 13.6637C29.496 14.4698 29.6647 16.3202 28.0657 17.9191C27.5498 18.4351 27.0078 18.7664 26.4844 18.9737C26.3823 19.0064 26.2796 19.0426 26.1762 19.0825C25.1739 19.3949 24.2755 19.2795 23.8116 19.1763C23.7596 18.942 23.7045 18.5978 23.7024 18.186C23.7024 18.18 23.7025 18.174 23.7025 18.168ZM28.0657 24.4632C26.4431 26.0859 24.5626 25.8871 23.8128 25.7208C23.6493 24.9728 23.4516 23.0831 25.0687 21.466C25.586 20.9487 26.1295 20.617 26.6543 20.4099C26.7544 20.3777 26.8552 20.3422 26.9565 20.3031C27.9568 19.9909 28.8537 20.1049 29.3191 20.2077C29.496 21.0139 29.6647 22.8643 28.0657 24.4632Z" fill="#081B6A"/>
<path d="M26.7516 1.39171C25.526 1.13184 24.2637 1 23 1C18.192 1 13.6718 2.87228 10.2721 6.2721C6.87235 9.67184 5 14.192 5 19C5 23.0062 6.34789 26.917 8.80362 30.0658C8.52736 30.4932 8.37865 30.991 8.37865 31.512C8.37865 32.2257 8.6566 32.8966 9.16123 33.4013C9.66586 33.9059 10.3369 34.1839 11.0505 34.1839C11.7642 34.1839 12.4352 33.9059 12.9398 33.4013C13.4445 32.8966 13.7224 32.2257 13.7224 31.512C13.7224 30.7983 13.4445 30.1274 12.9398 29.6227C12.4352 29.118 11.7642 28.8401 11.0505 28.8401C10.6275 28.8401 10.2198 28.9384 9.85254 29.1231C7.62701 26.2341 6.40625 22.6605 6.40625 19C6.40625 9.85016 13.8502 2.40625 23 2.40625C24.1659 2.40625 25.3299 2.52775 26.4598 2.76737C26.84 2.84788 27.213 2.60523 27.2935 2.22541C27.3741 1.84551 27.1315 1.47229 26.7516 1.39171ZM10.1556 30.617C10.4023 30.3702 10.7264 30.2469 11.0505 30.2469C11.3747 30.2469 11.6987 30.3703 11.9455 30.617C12.1845 30.856 12.3162 31.1739 12.3162 31.5119C12.3162 31.85 12.1845 32.1678 11.9455 32.4069C11.452 32.9005 10.649 32.9003 10.1556 32.4069C9.91653 32.1679 9.7849 31.85 9.7849 31.5119C9.7849 31.1739 9.91653 30.8561 10.1556 30.617Z" fill="#081B6A"/>
<path d="M37.1963 7.9341C37.4726 7.50674 37.6213 7.00893 37.6213 6.48791C37.6213 5.77424 37.3433 5.10325 36.8387 4.59862C36.3341 4.09391 35.6631 3.81604 34.9494 3.81604C34.2357 3.81604 33.5647 4.09399 33.0601 4.59862C32.5555 5.10325 32.2775 5.77424 32.2775 6.48791C32.2775 7.20158 32.5555 7.87258 33.0601 8.37721C33.5647 8.88191 34.2357 9.15979 34.9494 9.15979C35.3725 9.15979 35.7802 9.06142 36.1475 8.87678C38.3729 11.7658 39.5937 15.3394 39.5937 18.9999C39.5937 28.1498 32.1498 35.5937 23 35.5937C22.0156 35.5937 21.0294 35.5069 20.0688 35.3357C19.6867 35.2677 19.3213 35.5222 19.2532 35.9046C19.1851 36.2869 19.4398 36.652 19.822 36.7202C20.864 36.9058 21.9332 36.9999 23 36.9999C27.8079 36.9999 32.3281 35.1276 35.7279 31.7279C39.1277 28.3282 40.9999 23.8079 40.9999 18.9999C40.9999 14.9937 39.6521 11.083 37.1963 7.9341ZM35.8444 7.38285C35.6054 7.62191 35.2875 7.75354 34.9495 7.75354C34.6114 7.75354 34.2935 7.62198 34.0545 7.38285C33.561 6.8894 33.561 6.0865 34.0545 5.59298C34.2935 5.35391 34.6114 5.22229 34.9495 5.22229C35.2875 5.22229 35.6054 5.35391 35.8444 5.59298C36.0835 5.83197 36.2151 6.14985 36.2151 6.48791C36.2151 6.82598 36.0835 7.14379 35.8444 7.38285Z" fill="#081B6A"/>
<defs>
<linearGradient id="paint0_linear" x1="33.7159" y1="-4.20683e-07" x2="9.34471" y2="40.0369" gradientUnits="userSpaceOnUse">
<stop stop-color="#FF0066"/>
<stop stop-color="#FCB63D"/>
<stop offset="1" stop-color="#E07233"/>
</linearGradient>
</defs>
</svg>
