<svg width="45" height="46" viewBox="0 0 45 46" fill="none" xmlns="http://www.w3.org/2000/svg">
<path d="M30.2053 5.09446C33.9411 5.80552 36.0989 10.7506 38.4821 15.6634C40.8653 20.6085 43.4739 25.5213 42.9264 30.0139C42.3467 34.5065 38.5787 38.6113 34.2632 40.4536C29.9476 42.3282 25.0846 41.9727 20.7691 43.0716C16.4536 44.1705 12.6534 46.7562 10.0125 45.7866C7.37168 44.8493 5.85802 40.3566 4.60202 36.8337C3.34601 33.3107 2.34764 30.6927 2.09 28.0747C1.80015 25.4244 2.25103 22.774 2.86293 19.6712C3.50703 16.5361 4.27996 13.0131 6.43772 11.5587C8.59548 10.1042 12.1381 10.7183 16.5824 9.29619C21.059 7.87407 26.4373 4.3834 30.2053 5.09446Z" fill="url(#paint0_linear)"/>
<path d="M32.6614 17.4193C32.6614 7.9577 23.3472 0.471164 22.951 0.156818C22.687 -0.0522728 22.3138 -0.0522728 22.0495 0.156818C21.6532 0.471164 12.3391 7.9577 12.3391 17.4193C12.3391 26.1005 20.1779 33.1139 21.7744 34.4549V42.0963C21.7744 42.4971 22.0994 42.8221 22.5002 42.8221C22.9011 42.8221 23.226 42.4971 23.226 42.0963V34.4549C24.8229 33.1139 32.6614 26.1005 32.6614 17.4193ZM23.226 32.5011V24.2874L27.3196 20.8806C27.6279 20.624 27.6698 20.1662 27.4132 19.8578C27.1566 19.5495 26.6987 19.5077 26.3908 19.7643L23.226 22.3988V19.9312L27.3196 16.5241C27.6279 16.2678 27.6698 15.81 27.4132 15.5016C27.1566 15.1933 26.6987 15.1515 26.3908 15.4081L23.226 18.0441V14.8506L27.3196 11.4435C27.6279 11.1873 27.6698 10.7294 27.4132 10.4211C27.1566 10.1128 26.6987 10.0709 26.3908 10.3275L23.226 12.9635V7.25813C23.226 6.85731 22.9011 6.53233 22.5002 6.53233C22.0994 6.53233 21.7744 6.85731 21.7744 7.25813V12.9635L18.6101 10.3289C18.3018 10.0724 17.8439 10.1142 17.5873 10.4225C17.3307 10.7308 17.3729 11.1887 17.6812 11.4453L21.7744 14.852V18.0455L18.6101 15.4109C18.3018 15.1543 17.8439 15.1962 17.5873 15.5045C17.3307 15.8128 17.3729 16.2707 17.6812 16.5273L21.7744 19.9326V22.4002L18.6101 19.7657C18.3018 19.5091 17.8439 19.5509 17.5873 19.8593C17.3307 20.1676 17.3729 20.6254 17.6812 20.882L21.7744 24.2874V32.5011C19.3068 30.1859 13.7907 24.2519 13.7907 17.4193C13.7907 9.80266 20.656 3.28858 22.5002 1.67681C24.3445 3.28858 31.2098 9.80266 31.2098 17.4193C31.2098 24.2519 25.6937 30.1859 23.226 32.5011Z" fill="#081B6A"/>
<path d="M17.4195 38.4677H16.6937V33.138C16.6962 32.1751 16.3135 31.2512 15.6306 30.5725L9.52085 24.4596C8.67137 23.6137 7.29739 23.6137 6.44791 24.4596L5.80682 25.1028V17.4196C5.80611 16.613 5.47015 15.8433 4.87937 15.2943C4.28896 14.745 3.49689 14.4661 2.69242 14.5235C1.1455 14.6741 -0.0264789 15.9879 0.000454982 17.5422V27.91C0.00010059 28.813 0.336419 29.6833 0.944202 30.351L7.25841 37.2967V38.4677H6.53261C6.1318 38.4677 5.80682 38.7926 5.80682 39.1934V44.274C5.80682 44.6748 6.1318 44.9998 6.53261 44.9998H17.4195C17.8204 44.9998 18.1453 44.6748 18.1453 44.274V39.1934C18.1453 38.7926 17.8204 38.4677 17.4195 38.4677ZM2.01836 29.374C1.65369 28.9738 1.45169 28.4515 1.45205 27.91V17.5422C1.43255 16.7519 2.01234 16.074 2.79626 15.9716C3.21727 15.9414 3.63085 16.0956 3.92925 16.394C4.20284 16.6651 4.35629 17.0344 4.35523 17.4196V26.2532C4.35346 26.8312 4.5831 27.3858 4.99313 27.7934L8.92264 31.7229C9.20757 31.9979 9.66012 31.994 9.94009 31.714C10.2201 31.434 10.224 30.9811 9.94895 30.6965L6.61767 27.3649C6.48194 27.2299 6.40574 27.0463 6.40574 26.8549C6.40574 26.6632 6.48194 26.4796 6.61767 26.3446L7.47423 25.4888C7.75668 25.2095 8.21172 25.2095 8.49453 25.4888L14.6043 31.5992C15.0114 32.0081 15.2407 32.561 15.2422 33.138V38.4677H8.71V36.735L2.01836 29.374ZM16.6937 43.5482H7.25841V39.9192H16.6937V43.5482Z" fill="#081B6A"/>
<path d="M42.3077 14.5235C41.5035 14.4661 40.7111 14.745 40.1207 15.2943C39.5303 15.8433 39.1943 16.613 39.1933 17.4196V25.1028L38.5525 24.4617C37.703 23.6158 36.3291 23.6158 35.4796 24.4617L29.3699 30.5725C28.6869 31.2512 28.3042 32.1751 28.3063 33.138V38.4677H27.5805C27.1797 38.4677 26.8547 38.7926 26.8547 39.1934V44.274C26.8547 44.6748 27.1797 44.9998 27.5805 44.9998H38.4675C38.8683 44.9998 39.1933 44.6748 39.1933 44.274V39.1934C39.1933 38.7926 38.8683 38.4677 38.4675 38.4677H37.7417V37.2967L44.0562 30.351C44.664 29.6833 45.0003 28.813 44.9996 27.91V17.5422C45.0266 15.9879 43.8549 14.6741 42.3077 14.5235ZM37.7417 43.5482H28.3063V39.9192H37.7417V43.5482ZM43.548 27.91C43.5487 28.4515 43.3467 28.9738 42.9821 29.374L36.2901 36.735V38.4677H29.7579V33.138C29.7593 32.561 29.9886 32.0074 30.3958 31.5985L36.508 25.4888C36.7905 25.2095 37.2455 25.2095 37.5283 25.4888L38.3849 26.3453C38.6645 26.6264 38.6645 27.0803 38.3849 27.3614L35.0518 30.6944C34.8633 30.8766 34.7875 31.1463 34.8541 31.4C34.9204 31.6538 35.1188 31.8522 35.3726 31.9185C35.6263 31.9848 35.896 31.9093 36.0781 31.7204L40.0077 27.7912C40.4166 27.3837 40.6459 26.8301 40.6448 26.2532V17.4196C40.6441 17.0344 40.7976 16.6651 41.0708 16.394C41.3696 16.0956 41.7828 15.9418 42.2038 15.9716C42.9877 16.074 43.5679 16.7519 43.548 17.5422V27.91Z" fill="#081B6A"/>
<path d="M21.9848 43.7584C21.8519 43.8973 21.7768 44.0812 21.7743 44.2737C21.7757 44.3222 21.7803 44.3708 21.7888 44.4186C21.797 44.4643 21.8115 44.5083 21.8324 44.5494C21.8484 44.5955 21.8703 44.6394 21.8976 44.6802C21.9246 44.7181 21.9536 44.7542 21.9848 44.789C22.2712 45.0697 22.7294 45.0697 23.0154 44.789L23.1026 44.6802C23.1299 44.6394 23.1518 44.5955 23.1678 44.5494C23.1891 44.5083 23.2036 44.4643 23.2107 44.4186C23.2199 44.3708 23.2248 44.3222 23.2259 44.2737C23.2277 43.9788 23.0508 43.712 22.7787 43.5989C22.5061 43.4859 22.1925 43.5489 21.9848 43.7584Z" fill="#081B6A"/>
<path d="M8.71043 42.0963H11.6137C12.0145 42.0963 12.3395 41.7713 12.3395 41.3705C12.3395 40.9696 12.0145 40.6447 11.6137 40.6447H8.71043C8.3096 40.6447 7.98462 40.9696 7.98462 41.3705C7.98462 41.7713 8.3096 42.0963 8.71043 42.0963Z" fill="#081B6A"/>
<path d="M13.5151 42.0382C13.6023 42.0755 13.6962 42.0949 13.7908 42.0964C14.0857 42.0978 14.3525 41.9209 14.4656 41.6488C14.5786 41.3766 14.5156 41.0626 14.3061 40.8553C14.0974 40.649 13.7855 40.5891 13.5151 40.7025C13.4261 40.7376 13.345 40.7893 13.2755 40.8553C13.1426 40.9942 13.0675 41.1781 13.065 41.3706C13.0583 41.6658 13.2387 41.9337 13.5151 42.0382Z" fill="#081B6A"/>
<path d="M29.743 18.7255C29.7359 18.6802 29.7214 18.6359 29.7001 18.5947C29.6842 18.5487 29.6622 18.5047 29.6349 18.4643L29.5477 18.3555C29.2568 18.0869 28.8081 18.0869 28.5172 18.3555C28.486 18.3899 28.4569 18.4261 28.43 18.4643C28.4027 18.5047 28.3807 18.5487 28.3648 18.5947C28.3439 18.6359 28.3293 18.6802 28.3212 18.7255C28.313 18.7737 28.3084 18.8219 28.3066 18.8708C28.3091 19.0629 28.3843 19.2472 28.5172 19.3861C28.6554 19.5201 28.84 19.5952 29.0325 19.5966C29.2256 19.5984 29.4113 19.5226 29.5481 19.3861C29.6845 19.2497 29.7604 19.0636 29.7583 18.8708C29.7568 18.8219 29.7519 18.7734 29.743 18.7255Z" fill="#081B6A"/>
<defs>
<linearGradient id="paint0_linear" x1="22.5" y1="5" x2="22.5" y2="46" gradientUnits="userSpaceOnUse">
<stop stop-color="#E07233"/>
<stop offset="1" stop-color="#FCB63D"/>
</linearGradient>
</defs>
</svg>
