<svg width="41" height="42" viewBox="0 0 41 42" fill="none" xmlns="http://www.w3.org/2000/svg">
<path d="M29.5886 5.45789C32.4886 7.68289 34.7636 10.4829 35.4136 13.5579C36.0886 16.6329 35.1136 19.9829 34.4136 23.1829C33.7136 26.4079 33.2636 29.5079 31.9386 32.8579C30.6136 36.2079 28.4136 39.8329 25.3386 40.9829C22.2386 42.1329 18.2886 40.8079 15.4136 38.6579C12.5386 36.5079 10.7886 33.5079 8.33857 30.9329C5.88857 28.3579 2.76357 26.2329 1.18857 23.1579C-0.411427 20.0829 -0.461427 16.0329 1.43857 13.3079C3.33857 10.5829 7.16357 9.15789 10.5386 7.15789C13.9136 5.15789 16.7886 2.58289 19.9886 2.08289C23.1886 1.60789 26.7136 3.23289 29.5886 5.45789Z" fill="url(#paint0_linear)"/>
<path d="M41 21.4204C41 18.7518 39.7062 16.2033 37.5389 14.6036C37.097 14.2764 36.5491 14.0968 35.9969 14.0968C35.3055 14.0968 34.6577 14.3732 34.1821 14.8433C34.0932 14.7691 34.0123 14.6876 33.9204 14.6171C33.5802 14.3573 33.172 14.2028 32.7528 14.1391L33.0231 11.1671C33.0292 11.096 33.0323 11.0243 33.0323 10.9526C33.0323 9.64465 31.9683 8.58065 30.6603 8.58065H30.501C29.193 8.58065 28.129 9.64465 28.129 10.9526C28.129 11.0243 28.1321 11.096 28.1388 11.1677L28.4104 14.1525C28.0218 14.2261 27.6461 14.3763 27.3286 14.6128C27.2189 14.695 27.1214 14.7894 27.016 14.8758C26.9615 14.8194 26.9038 14.7667 26.8444 14.7158C26.8793 14.5117 26.9032 14.3052 26.9032 14.0968C26.9032 13.3184 26.6605 12.5737 26.2106 11.9516C26.6605 11.3295 26.9032 10.5855 26.9032 9.80645C26.9032 7.70787 25.1276 6.00706 23.0119 6.13577C22.6184 5.00803 21.7009 4.15794 20.5732 3.83003C19.8266 2.89903 18.7014 2.38235 17.4958 2.45835C16.9883 1.00394 15.6142 0 14.0323 0C12.7053 0 11.4973 0.709742 10.8464 1.84055C9.22342 1.8951 7.82048 3.04061 7.41842 4.60106C5.52087 5.30897 4.22581 7.14584 4.22581 9.19355C4.22581 10.8355 5.03361 12.3365 6.37035 13.2436C6.16871 13.7039 6.06452 14.2016 6.06452 14.7097C6.06452 15.8129 6.55484 16.8383 7.39636 17.5327C7.32587 17.8171 7.29032 18.1033 7.29032 18.3871C7.29032 20.265 8.70613 21.8194 10.5265 22.0382L11.8822 25.8351C11.1878 26.3469 10.5963 26.9874 10.1409 27.7228L6.92994 27.0094C6.80797 26.9812 6.68232 26.9677 6.55606 26.9677C5.60913 26.9677 4.83871 27.7382 4.83871 28.6851V28.9278C4.83871 29.0994 4.87181 29.2625 4.919 29.4194H4.83871C3.82497 29.4194 3 30.2443 3 31.2581C3 32.2718 3.82497 33.0968 4.83871 33.0968H4.919C4.87181 33.2537 4.83871 33.4167 4.83871 33.5883V33.831C4.83871 34.778 5.60913 35.5484 6.55606 35.5484C6.68232 35.5484 6.80797 35.5349 6.92871 35.5073L10.1409 34.7933C11.3306 36.7141 13.4506 38 15.871 38H16.015C16.3558 38 16.7008 37.9736 17.0398 37.9216L38.0568 34.6885C39.7619 34.4255 41 32.9834 41 31.2581C41 29.8784 40.2014 28.6912 39.0124 28.1316C40.2823 26.6147 41 24.6902 41 22.7087V21.4204ZM33.1751 15.591C35.0046 16.9897 36.0968 19.2176 36.0968 21.5521V23.8033C36.0968 25.0598 35.7836 26.2899 35.1934 27.3876L30.2785 26.6313C30.0762 25.7419 29.9677 24.8336 29.9677 23.9216V21.4332C29.9677 20.8154 30.0296 20.1982 30.1234 19.5865C30.2736 19.5994 30.4231 19.6129 30.5806 19.6129C32.328 19.6129 33.6452 18.8223 33.6452 17.7742C33.6452 17.1956 33.2449 16.682 32.5517 16.3449L32.6418 15.3532C32.8331 15.3918 33.0169 15.4691 33.1751 15.591ZM30.501 9.80645H30.6609C31.2928 9.80645 31.8071 10.3207 31.8071 10.9526C31.8071 10.9875 31.8058 11.0225 31.8022 11.0568L31.2456 17.1778L31.7133 17.328C32.2502 17.4996 32.4194 17.7258 32.4194 17.7742C32.4194 17.9268 31.7672 18.3871 30.5806 18.3871C29.3941 18.3871 28.7419 17.9268 28.7419 17.7742C28.7419 17.7258 28.9111 17.4996 29.448 17.3274L29.9156 17.1772L29.3591 11.0568C29.3561 11.0218 29.3548 10.9869 29.3548 10.9526C29.3548 10.3207 29.8691 9.80645 30.501 9.80645ZM28.5213 15.3735L28.6095 16.3449C27.9164 16.682 27.5161 17.1956 27.5161 17.7742C27.5161 18.4496 28.0671 19.0141 28.9234 19.3328C28.8136 20.0285 28.7419 20.7308 28.7419 21.4332V23.9216C28.7419 24.7637 28.8228 25.6046 28.9797 26.4315L25.3667 25.8755C25.1699 25.202 25.0645 24.5075 25.0645 23.8027V21.5515C25.0645 19.2206 26.1849 16.9934 28.0616 15.5947C28.1983 15.493 28.3558 15.4182 28.5213 15.3735ZM21.8976 25.3417C21.5648 24.4996 21.3871 23.6176 21.3871 22.7087V21.4197C21.3871 19.1385 22.4952 16.959 24.3505 15.5886C24.5834 15.417 24.8727 15.3226 25.1644 15.3226C25.5346 15.3226 25.8754 15.4715 26.1248 15.721C24.6796 17.3047 23.8387 19.3849 23.8387 21.5521V23.8033C23.8387 24.4352 23.9141 25.0604 24.0508 25.6733L21.8976 25.3417ZM21.9553 6.92642L22.0668 7.5571L22.692 7.41797C22.882 7.37568 23.0566 7.35484 23.2258 7.35484C24.5779 7.35484 25.6774 8.45439 25.6774 9.80645C25.6774 10.4506 25.4274 11.0598 24.9738 11.522L24.5521 11.9516L24.9738 12.3813C25.4274 12.8434 25.6774 13.4526 25.6774 14.0968C25.6774 14.1152 25.6737 14.1335 25.6737 14.1525C25.5076 14.1195 25.3385 14.0968 25.1644 14.0968C24.6122 14.0968 24.0643 14.2764 23.6224 14.603C22.5069 15.4262 21.6286 16.503 21.0328 17.716C20.8005 16.9927 20.5566 16.3002 20.3053 15.6425C20.8723 12.6479 22.9751 10.9146 22.9966 10.8968L22.6129 10.4194L22.2298 9.94068C22.1446 10.0087 20.4867 11.3626 19.5557 13.805C18.2803 10.8766 17.0765 8.9821 16.9993 8.86197L15.9678 9.52513C15.9844 9.55026 16.919 11.0206 18.0069 13.3613C16.1737 12.6712 14.0905 12.8618 13.971 12.874L14.0929 14.0937C15.0147 14.0012 17.6257 14.0459 18.8454 15.2907C19.275 16.3467 19.6985 17.5045 20.0724 18.745C18.2092 17.7895 15.9862 17.7742 15.871 17.7742V19C15.8998 19 18.6284 19.0184 20.2434 20.3024C20.1932 20.6714 20.1613 21.044 20.1613 21.4204V22.7093C20.1613 23.5373 20.2888 24.347 20.5254 25.1315L17.0398 24.5952C16.8559 24.567 16.6702 24.548 16.4839 24.5345C15.1318 24.5345 14.0323 23.4264 14.0323 22.0651C14.0323 21.7795 14.0893 21.4865 14.2008 21.193L14.3798 20.7241L13.955 20.4556C13.2361 20.0009 12.8065 19.228 12.8065 18.3871C12.8065 17.9047 12.948 17.4371 13.2159 17.0338L13.5977 16.4601L12.9836 16.1482C11.74 15.5156 10.9677 14.2604 10.9677 12.871C10.9677 11.24 12.0636 9.78745 13.6333 9.33819L14.0139 9.2291L14.0709 8.83745C14.2455 7.6429 15.2832 6.74194 16.4839 6.74194C16.5065 6.74194 16.5286 6.74684 16.5507 6.7499C16.5936 6.75603 16.6371 6.76155 16.6806 6.76461L17.1201 6.80016L17.2929 6.39442C17.6796 5.48855 18.5647 4.90323 19.5484 4.90323C20.7362 4.90323 21.7481 5.75394 21.9553 6.92642ZM11.3998 20.8387H10.9677C9.61568 20.8387 8.51613 19.7392 8.51613 18.3871C8.51613 18.1009 8.57313 17.8079 8.68468 17.5155L8.86426 17.0467L8.43952 16.7782C7.71997 16.3235 7.29032 15.5506 7.29032 14.7097C7.29032 14.2273 7.4319 13.7597 7.69974 13.3564L8.08158 12.7827L7.46745 12.4707C6.22387 11.8382 5.45161 10.583 5.45161 9.19355C5.45161 7.56261 6.54748 6.11003 8.11652 5.66077L8.49713 5.55168L8.55413 5.16003C8.72942 3.96548 9.76706 3.06452 10.9677 3.06452C10.991 3.06452 11.0137 3.06942 11.0364 3.07248C11.0781 3.078 11.1197 3.08352 11.1626 3.08719L11.6039 3.12397L11.7774 2.71639C12.1635 1.81113 13.0485 1.22581 14.0323 1.22581C15.2201 1.22581 16.232 2.07652 16.4391 3.249L16.5507 3.87968L17.1758 3.74055C17.3658 3.69826 17.5405 3.67742 17.7097 3.67742C17.9916 3.67742 18.2595 3.73932 18.5156 3.82881C17.6147 4.09236 16.8387 4.69055 16.3625 5.51797C14.7395 5.57252 13.3366 6.71803 12.9345 8.27848C11.037 8.98639 9.74194 10.8233 9.74194 12.871C9.74194 14.5129 10.5497 16.0139 11.8865 16.921C11.6848 17.3813 11.5806 17.879 11.5806 18.3871C11.5806 19.4903 12.071 20.5157 12.9125 21.2107C12.842 21.4951 12.8065 21.7807 12.8065 22.0645C12.8065 23.1414 13.2698 24.1092 14.0035 24.7846C13.6394 24.89 13.2894 25.0267 12.9535 25.1891L11.3998 20.8387ZM6.06452 28.9278V28.6851C6.06452 28.3774 6.36239 28.1402 6.66332 28.2052L9.58013 28.8536C9.50903 29.0387 9.44529 29.2269 9.39074 29.4194H6.55606C6.28516 29.4194 6.06452 29.1987 6.06452 28.9278ZM4.22581 31.2581C4.22581 30.9204 4.501 30.6452 4.83871 30.6452H6.55606H9.15968C9.1419 30.8474 9.12903 31.0509 9.12903 31.2581C9.12903 31.4652 9.1419 31.6687 9.16029 31.871H6.55606H4.83871C4.501 31.871 4.22581 31.5958 4.22581 31.2581ZM6.6621 34.3109C6.37158 34.3735 6.06452 34.1381 6.06452 33.831V33.5883C6.06452 33.3174 6.28516 33.0968 6.55606 33.0968H9.39013C9.44468 33.2892 9.50903 33.4774 9.57952 33.6625L6.6621 34.3109ZM39.7742 31.2581C39.7742 32.3742 38.9737 33.307 37.8711 33.4768L16.8547 36.7098C16.5764 36.7527 16.2939 36.7742 16.015 36.7742H15.871C12.8297 36.7742 10.3548 34.2993 10.3548 31.2581C10.3548 28.2168 12.8297 25.7419 15.871 25.7419H16.015C16.2939 25.7419 16.5764 25.7634 16.8541 25.8057L37.8705 29.0387C38.9737 29.2091 39.7742 30.142 39.7742 31.2581ZM39.7742 22.7087C39.7742 24.594 39.0111 26.418 37.6836 27.77L36.4657 27.5825C37.0253 26.4069 37.3226 25.118 37.3226 23.8027V21.5515C37.3226 19.3733 36.4927 17.2826 35.0671 15.6965C35.3147 15.4629 35.6432 15.3226 35.9969 15.3226C36.2892 15.3226 36.5779 15.417 36.8108 15.5898C38.6661 16.959 39.7742 19.1391 39.7742 21.4204V22.7087Z" fill="#081B6A"/>
<path d="M15.2577 28.1935H16.4835V34.3225H15.2577V28.1935Z" fill="#081B6A"/>
<path d="M20.1608 28.1935H21.3866V34.3225H20.1608V28.1935Z" fill="#081B6A"/>
<path d="M25.0641 28.1935H26.2899V34.3225H25.0641V28.1935Z" fill="#081B6A"/>
<path d="M29.9674 29.4196H31.1932V33.097H29.9674V29.4196Z" fill="#081B6A"/>
<path d="M34.8706 30.0326H36.0964V32.4842H34.8706V30.0326Z" fill="#081B6A"/>
<defs>
<linearGradient id="paint0_linear" x1="17.8205" y1="2" x2="17.8205" y2="41.4072" gradientUnits="userSpaceOnUse">
<stop stop-color="#E07233"/>
<stop offset="1" stop-color="#FCB63D"/>
</linearGradient>
</defs>
</svg>
