<svg width="48" height="48" viewBox="0 0 48 48" fill="none" xmlns="http://www.w3.org/2000/svg">
<path d="M31.8501 13.2727C35.7149 15.8342 38.3355 20.1035 39.8179 24.674C41.3003 29.2697 41.6709 34.1165 39.262 37.2054C36.8531 40.2943 31.6648 41.6002 27.6412 42.9312C23.5911 44.2622 20.7058 45.5932 17.5557 45.9197C14.3792 46.2461 10.9909 45.5681 7.52322 44.0613C4.05551 42.5545 0.53486 40.2441 0.0583808 37.3561C-0.418098 34.4681 2.14959 30.9774 3.12902 26.6831C4.13492 22.3887 3.55256 17.2908 5.72319 14.227C7.92028 11.1381 12.8439 10.1336 17.8734 10.008C22.9029 9.90757 28.0118 10.7363 31.8501 13.2727Z" fill="url(#paint0_linear)"/>
<path d="M38.8593 17.6744H35.8374L36.7479 7.22039C36.7496 7.20146 36.7499 7.1828 36.75 7.16414L36.7501 7.15946C36.7501 6.87492 36.5785 6.62339 36.3262 6.51436C36.3241 6.51342 36.322 6.5123 36.3198 6.51136C36.3042 6.5048 36.288 6.49917 36.2716 6.49373C36.2655 6.49177 36.2597 6.48933 36.2536 6.48745C36.2403 6.48342 36.2266 6.48023 36.2131 6.47695C36.2035 6.4747 36.1943 6.47198 36.1846 6.47011C36.1727 6.46777 36.1604 6.46627 36.1482 6.46448C36.1367 6.4628 36.1255 6.46083 36.114 6.4598L36.1082 6.45905C36.0959 6.45792 36.0837 6.45811 36.0714 6.45764C36.0631 6.45736 36.0551 6.45642 36.0468 6.45642H36.038H36.0359H21.6573C21.2691 6.45642 20.9541 6.77142 20.9541 7.15955C20.9541 7.54674 21.2691 7.86268 21.6573 7.86268H35.2804L33.8811 23.9291L33.8807 23.9328L33.5277 27.9867H9.09547L9.50413 23.7681H14.1561C14.5445 23.7681 14.8592 23.4533 14.8592 23.065C14.8592 22.6766 14.5445 22.3618 14.1561 22.3618H9.64044L10.5033 13.456H17.9073C18.2957 13.456 18.6104 13.1412 18.6104 12.7529C18.6104 12.3646 18.2957 12.0498 17.9073 12.0498H10.6396L11.0454 7.86268H18.8448C19.232 7.86268 19.5479 7.54674 19.5479 7.15955C19.5479 6.77142 19.232 6.45642 18.8448 6.45642H10.4072C10.0769 6.45633 9.78941 6.68892 9.72013 7.01124C9.71966 7.01358 9.71882 7.01583 9.71835 7.01817C9.71479 7.0357 9.71244 7.05361 9.7101 7.07161C9.70944 7.07733 9.70823 7.08277 9.70766 7.08849L9.70719 7.09177L9.22682 12.0498H0.703128C0.31472 12.0498 0 12.3646 0 12.7529C0 13.1412 0.31472 13.456 0.703128 13.456H9.0905L8.22763 22.3618H5.71896C5.33055 22.3618 5.01583 22.6766 5.01583 23.065C5.01583 23.4533 5.33055 23.7681 5.71896 23.7681H8.09141L7.62153 28.6169L7.62134 28.6191L6.89487 36.1172L6.89459 36.1197L6.89431 36.1224C6.89337 36.1322 6.89347 36.1417 6.8929 36.1515C6.89225 36.1644 6.89093 36.1771 6.89093 36.1902L6.89103 36.192C6.89103 36.2101 6.89234 36.2279 6.89365 36.2457C6.89421 36.2514 6.89403 36.2572 6.89468 36.2629C6.89656 36.281 6.89965 36.2989 6.90293 36.3168C6.90387 36.322 6.90434 36.3274 6.90537 36.3325C6.90809 36.346 6.91193 36.359 6.9155 36.3723C6.91793 36.3815 6.9199 36.391 6.92272 36.4001C6.92356 36.4026 6.92468 36.4051 6.92543 36.4077C6.95947 36.5123 7.01722 36.6063 7.09259 36.6829L7.09653 36.6873C7.10403 36.6948 7.11218 36.7015 7.12006 36.7086C7.16853 36.7531 7.22328 36.7908 7.28319 36.8203C7.29565 36.8265 7.30793 36.8329 7.32068 36.8383C7.32453 36.84 7.32865 36.8411 7.33259 36.8426C7.35022 36.8496 7.36794 36.8564 7.38622 36.8621L7.39118 36.8634C7.412 36.8696 7.433 36.875 7.45447 36.8794C7.45728 36.88 7.46019 36.8802 7.4629 36.8808C7.48334 36.8846 7.50387 36.8879 7.52478 36.8899L7.52609 36.8901C7.54915 36.8924 7.57203 36.8935 7.59472 36.8935L10.7259 36.8934C11.0715 39.514 13.3183 41.5437 16.0319 41.5437C18.7453 41.5437 20.992 39.514 21.3377 36.8934H32.6158C32.9615 39.514 35.2081 41.5437 37.9216 41.5437C40.6351 41.5437 42.882 39.514 43.2277 36.8934H46.3586L46.3601 36.8935C46.3836 36.8935 46.4066 36.8921 46.4295 36.8899C46.4336 36.8895 46.4376 36.8886 46.4417 36.8882C46.46 36.886 46.4782 36.8835 46.496 36.8799C46.5037 36.8784 46.5111 36.8764 46.5187 36.8746C46.5324 36.8714 46.5463 36.868 46.5598 36.864C46.569 36.8613 46.5779 36.8581 46.5869 36.855C46.5984 36.851 46.61 36.8469 46.6213 36.8423C46.6311 36.8385 46.6403 36.8343 46.6498 36.83C46.6601 36.8253 46.6704 36.8204 46.6805 36.8152C46.69 36.8104 46.6992 36.8053 46.7084 36.8C46.7181 36.7944 46.7276 36.7886 46.7371 36.7826C46.7459 36.777 46.7547 36.7713 46.7631 36.7653C46.7727 36.7586 46.7818 36.7516 46.7911 36.7444C46.7988 36.7384 46.8066 36.7324 46.8141 36.726C46.8237 36.7178 46.8328 36.7093 46.842 36.7006C46.8484 36.6945 46.855 36.6885 46.8612 36.6821C46.871 36.6722 46.8802 36.6617 46.8895 36.6511C46.8945 36.6454 46.8997 36.6398 46.9044 36.634C46.9147 36.6213 46.9241 36.6081 46.9335 36.5949C46.9367 36.5903 46.9402 36.586 46.9433 36.5813C46.9548 36.5642 46.9656 36.5465 46.9755 36.5284L46.9775 36.525C46.9881 36.5055 46.9978 36.4855 47.0065 36.4649C47.009 36.459 47.0108 36.4529 47.0132 36.447C47.0189 36.4324 47.0245 36.4179 47.0293 36.4028C47.0324 36.3931 47.0347 36.383 47.0374 36.3732C47.0405 36.3615 47.0437 36.3499 47.0464 36.3379C47.0487 36.3274 47.0502 36.3165 47.052 36.3057C47.0536 36.2962 47.0557 36.2869 47.0569 36.2773C47.0867 36.0384 47.6373 31.621 47.8832 28.7646C47.8835 28.7619 47.8836 28.7591 47.8838 28.7564C47.9546 27.9329 48 27.2396 48 26.8151C48 21.775 43.8995 17.6744 38.8593 17.6744ZM35.7149 19.0808H38.5914L38.224 23.2992H35.3475L35.7149 19.0808ZM16.0321 40.1374C13.8555 40.1374 12.0847 38.3666 12.0847 36.1901C12.0847 34.0136 13.8556 32.2428 16.0321 32.2428C18.2086 32.2428 19.9793 34.0136 19.9793 36.1901C19.9793 38.3666 18.2086 40.1374 16.0321 40.1374ZM37.9216 40.1374C35.7451 40.1374 33.9745 38.3666 33.9745 36.1901C33.9745 34.0136 35.7452 32.2428 37.9216 32.2428C40.0983 32.2428 41.869 34.0136 41.869 36.1901C41.869 38.3666 40.0983 40.1374 37.9216 40.1374ZM45.7373 35.4867H43.2279C42.8824 32.8659 40.6355 30.8361 37.9218 30.8361C35.2083 30.8361 32.9615 32.866 32.6159 35.4867H21.338C20.9924 32.8659 18.7457 30.8361 16.0321 30.8361C13.3185 30.8361 11.0715 32.866 10.726 35.4867H8.36872L8.95925 29.3925H34.172C34.1955 29.3925 34.2199 29.3916 34.243 29.3893C34.2473 29.3889 34.2515 29.388 34.2558 29.3874C34.2742 29.3852 34.2925 29.3826 34.3105 29.379C34.3183 29.3775 34.3259 29.3753 34.3335 29.3734C34.3476 29.37 34.3617 29.3668 34.3754 29.3626C34.3847 29.3598 34.3936 29.3565 34.4027 29.3533C34.4145 29.3491 34.4264 29.3451 34.4378 29.3404C34.4476 29.3364 34.4571 29.3319 34.4667 29.3274C34.4771 29.3226 34.4875 29.3178 34.4975 29.3126C34.5071 29.3075 34.5164 29.3021 34.5259 29.2966C34.5356 29.291 34.5451 29.2853 34.5545 29.2793C34.5636 29.2734 34.5722 29.2672 34.5809 29.261C34.5902 29.2544 34.5992 29.2477 34.6082 29.2407C34.6163 29.2342 34.6243 29.2275 34.6321 29.2207C34.641 29.213 34.6498 29.2051 34.6582 29.197C34.6653 29.1901 34.6724 29.1831 34.6794 29.1759C34.6878 29.1671 34.696 29.158 34.704 29.1487C34.7103 29.1414 34.7165 29.1341 34.7225 29.1266C34.7303 29.1167 34.7377 29.1066 34.745 29.0964C34.7505 29.0887 34.7559 29.081 34.7611 29.0731C34.768 29.0625 34.7745 29.0517 34.7808 29.0406C34.7856 29.0324 34.7905 29.0241 34.7948 29.0157C34.8007 29.0046 34.8058 28.9934 34.8111 28.982C34.8152 28.9729 34.8195 28.964 34.8232 28.9546C34.8278 28.9436 34.8316 28.9322 34.8357 28.9209C34.8391 28.9109 34.8428 28.9008 34.8459 28.8905C34.849 28.8796 34.8515 28.8685 34.8543 28.8574C34.857 28.8463 34.86 28.8352 34.8622 28.8239C34.8644 28.8128 34.8657 28.8015 34.8674 28.7903C34.869 28.7787 34.871 28.7672 34.8721 28.7554L34.8728 28.7504L35.2252 24.7051H38.8592C41.0134 24.7051 41.9851 25.8213 43.0136 27.0031C43.8623 27.9782 44.8099 29.0662 46.4205 29.3316C46.2159 31.4944 45.8853 34.2709 45.7373 35.4867ZM46.5407 27.9225C45.4958 27.7095 44.853 26.975 44.0742 26.0803C43.1002 24.9613 41.9112 23.5959 39.6318 23.3414L39.9956 19.165C43.7235 19.7164 46.5937 22.9365 46.5937 26.8153C46.5937 27.0788 46.5741 27.4617 46.5407 27.9225Z" fill="#081B6A"/>
<path d="M16.032 33.6118C14.6105 33.6118 13.4539 34.7683 13.4539 36.19C13.4539 37.6116 14.6105 38.7681 16.032 38.7681C17.4535 38.7681 18.6101 37.6116 18.6101 36.19C18.6101 34.7684 17.4535 33.6118 16.032 33.6118ZM16.032 37.3618C15.3858 37.3618 14.8601 36.8362 14.8601 36.19C14.8601 35.5437 15.3858 35.0181 16.032 35.0181C16.6782 35.0181 17.2039 35.5437 17.2039 36.19C17.2039 36.8362 16.6781 37.3618 16.032 37.3618Z" fill="#081B6A"/>
<path d="M37.9216 33.6118C36.5001 33.6118 35.3435 34.7683 35.3435 36.19C35.3435 37.6116 36.5001 38.7681 37.9216 38.7681C39.3432 38.7681 40.4998 37.6116 40.4998 36.19C40.4998 34.7684 39.3432 33.6118 37.9216 33.6118ZM37.9216 37.3618C37.2754 37.3618 36.7498 36.8362 36.7498 36.19C36.7498 35.5437 37.2754 35.0181 37.9216 35.0181C38.5679 35.0181 39.0935 35.5437 39.0935 36.19C39.0935 36.8362 38.5679 37.3618 37.9216 37.3618Z" fill="#081B6A"/>
<path d="M6.65633 17.6746H3.21887C2.83047 17.6746 2.51575 17.9894 2.51575 18.3777C2.51575 18.766 2.83047 19.0808 3.21887 19.0808H6.65633C7.04473 19.0808 7.35945 18.766 7.35945 18.3777C7.35945 17.9894 7.04473 17.6746 6.65633 17.6746Z" fill="#081B6A"/>
<defs>
<linearGradient id="paint0_linear" x1="20.5" y1="10" x2="20.5" y2="46" gradientUnits="userSpaceOnUse">
<stop stop-color="#FCB63D"/>
<stop offset="1" stop-color="#E07233"/>
</linearGradient>
</defs>
</svg>
