<?xml version="1.0" standalone="no"?>
<!DOCTYPE svg PUBLIC "-//W3C//DTD SVG 20010904//EN"
 "http://www.w3.org/TR/2001/REC-SVG-20010904/DTD/svg10.dtd">
<svg version="1.0" xmlns="http://www.w3.org/2000/svg"
 width="96.000000pt" height="96.000000pt" viewBox="0 0 96.000000 96.000000"
 preserveAspectRatio="xMidYMid meet">
<metadata>
Created by potrace 1.14, written by Peter Selinger 2001-2017
</metadata>
<g transform="translate(0.000000,96.000000) scale(0.100000,-0.100000)"
fill="#000000" stroke="none">
<path d="M467 921 c-16 -6 -19 -19 -20 -81 l-1 -75 45 -32 c117 -85 142 -108
170 -151 48 -76 39 -198 -22 -284 -11 -14 -19 -33 -19 -42 0 -20 68 -66 97
-66 22 0 81 68 116 135 112 214 11 490 -213 581 -59 24 -117 30 -153 15z"/>
<path d="M285 610 c-3 -5 1 -10 9 -10 9 0 16 5 16 10 0 6 -4 10 -9 10 -6 0
-13 -4 -16 -10z"/>
<path d="M220 248 c1 -69 8 -84 60 -115 100 -59 246 -62 358 -5 17 9 32 20 32
24 0 4 -17 19 -37 32 -21 14 -49 34 -63 45 -31 26 -36 26 -43 1 -6 -21 -27
-26 -107 -21 -51 3 -97 24 -154 70 -21 17 -40 31 -42 31 -2 0 -4 -28 -4 -62z"/>
</g>
</svg>
