<svg width="32" height="32" viewBox="0 0 32 32" fill="none" xmlns="http://www.w3.org/2000/svg">
<path d="M19.4214 12.6563C17.1884 11.8903 14.7629 11.8958 12.5334 12.672C12.3713 12.7299 12.2271 12.8289 12.1149 12.9594C12.0028 13.0899 11.9266 13.2474 11.8937 13.4163L11.1565 17.1048C11.1239 17.2679 11.0511 17.4203 10.9447 17.5482C10.8383 17.6761 10.7017 17.7755 10.5473 17.8372L4.63318 20.2029C4.43281 20.2838 4.21158 20.2973 4.00282 20.2416C3.79406 20.1858 3.60908 20.0637 3.47575 19.8936C2.5827 18.7389 2.14118 17.2982 2.23385 15.8414C2.32653 14.3846 2.94704 13.0115 3.9792 11.9792C7.16732 8.79106 11.4913 7 16 7C20.5087 7 24.8327 8.79106 28.0208 11.9792C29.053 13.0115 29.6735 14.3846 29.7662 15.8414C29.8589 17.2982 29.4173 18.7389 28.5243 19.8936C28.391 20.0637 28.206 20.1858 27.9972 20.2416C27.7885 20.2973 27.5672 20.2838 27.3668 20.2029L21.4476 17.8352C21.2945 17.7739 21.1589 17.6758 21.0529 17.5495C20.947 17.4231 20.8739 17.2726 20.8401 17.1111L20.0638 13.3939C20.0297 13.2259 19.9525 13.0696 19.8399 12.9403C19.7273 12.8111 19.5831 12.7132 19.4214 12.6563Z" stroke="#081B6A" stroke-width="2" stroke-linecap="round" stroke-linejoin="round"/>
<path d="M5 25H27" stroke="#081B6A" stroke-width="2" stroke-linecap="round" stroke-linejoin="round"/>
</svg>
