<svg width="32" height="32" viewBox="0 0 32 32" fill="none" xmlns="http://www.w3.org/2000/svg">
<path d="M20 16L14 12V20L20 16Z" stroke="#081B6A" stroke-width="2" stroke-linecap="round" stroke-linejoin="round"/>
<path d="M3 16C3 19.7194 3.38427 21.9017 3.67638 23.0233C3.75447 23.3296 3.90442 23.613 4.11382 23.8498C4.32322 24.0866 4.58603 24.2701 4.88049 24.3851C9.0651 25.9932 16 25.9491 16 25.9491C16 25.9491 22.9348 25.9932 27.1195 24.3851C27.4139 24.2701 27.6767 24.0866 27.8861 23.8498C28.0955 23.613 28.2455 23.3297 28.3236 23.0233C28.6157 21.9017 29 19.7194 29 16C29 12.2806 28.6157 10.0983 28.3236 8.97666C28.2455 8.67034 28.0956 8.38703 27.8862 8.15021C27.6768 7.91339 27.414 7.72988 27.1195 7.61487C22.9349 6.00677 16 6.05093 16 6.05093C16 6.05093 9.06518 6.00678 4.88053 7.61485C4.58607 7.72986 4.32325 7.91337 4.11385 8.15019C3.90446 8.38701 3.7545 8.67032 3.67641 8.97664C3.38428 10.0982 3 12.2806 3 16Z" stroke="#081B6A" stroke-width="2" stroke-linecap="round" stroke-linejoin="round"/>
</svg>
